<svg width="512" height="512" xmlns="http://www.w3.org/2000/svg" stroke-width="1.536" stroke="#000000" transform="matrix(-1, 0, 0, 1, 0, 0)" fill="#000000" xml:space="preserve" version="1.1">

 <g>
  <title>Layer 1</title>
  <g stroke-width="0" id="SVGRepo_bgCarrier"/>
  <path id="svg_1" fill="#AEB3BF" d="m489.739,200.348l-133.565,0c-9.217,0 -16.696,-7.473 -16.696,-16.696l0,-66.782c0,-9.223 7.479,-16.696 16.696,-16.696l133.565,0c9.217,0 16.696,7.473 16.696,16.696l0,66.783c0,9.222 -7.479,16.695 -16.696,16.695z"/>
  <path id="svg_2" fill="#C4C9D6" d="m122.435,267.13l-66.783,0c-9.217,0 -16.696,-7.473 -16.696,-16.696l0,-100.173c0,-27.619 22.468,-50.087 50.087,-50.087l133.565,0c9.217,0 16.696,7.473 16.696,16.696l0,66.783c0,9.223 -7.479,16.696 -16.696,16.696l-83.478,0l0,50.087c0,9.221 -7.478,16.694 -16.695,16.694z"/>
  <path id="svg_3" fill="#AEB3BF" d="m122.435,267.13c9.217,0 16.696,-7.473 16.696,-16.696l0,-50.087l83.478,0c9.217,0 16.696,-7.473 16.696,-16.696l0,-66.781c0,-9.223 -7.479,-16.696 -16.696,-16.696l-133.566,0l0,166.956l33.392,0z"/>
  <path id="svg_4" fill="#6C5B52" d="m489.739,267.13c-9.217,0 -16.696,-7.473 -16.696,-16.696l0,-200.347c0,-9.223 7.479,-16.696 16.696,-16.696c9.217,0 16.696,7.473 16.696,16.696l0,200.348c0,9.222 -7.479,16.695 -16.696,16.695z"/>
  <path id="svg_5" fill="#AEB3BF" d="m322.783,100.174l-66.783,0c-9.217,0 -16.696,-7.473 -16.696,-16.696l0,-66.782c0,-9.223 7.479,-16.696 16.696,-16.696l66.783,0c9.217,0 16.696,7.473 16.696,16.696l0,66.783c-0.001,9.222 -7.479,16.695 -16.696,16.695z"/>
  <path id="svg_8" fill="#AEB3BF" d="m322.783,0l-33.391,0l0,100.174l33.391,0c9.217,0 16.696,-7.473 16.696,-16.696l0,-66.782c-0.001,-9.223 -7.479,-16.696 -16.696,-16.696z"/>
  <path id="svg_9" fill="#7C84E8" d="m389.565,33.391l-200.348,0c-9.22,0 -16.696,-7.475 -16.696,-16.696l0,0c0,-9.22 7.475,-16.696 16.696,-16.696l200.348,0c9.22,0 16.696,7.475 16.696,16.696l0,0c0,9.221 -7.475,16.696 -16.696,16.696z"/>
  <path id="svg_10" fill="#515BE0" d="m389.565,0l-100.174,0l0,33.391l100.174,0c9.22,0 16.696,-7.475 16.696,-16.696s-7.475,-16.695 -16.696,-16.695z"/>
  <path id="svg_11" fill="#DBE1F1" d="m322.783,233.739l-66.783,0c-27.619,0 -50.087,-22.468 -50.087,-50.087l0,-66.782c0,-27.619 22.468,-50.087 50.087,-50.087l66.783,0c27.619,0 50.087,22.468 50.087,50.087l0,66.783c0,27.618 -22.468,50.086 -50.087,50.086z"/>
  <path id="svg_12" fill="#D0D5E5" d="m322.783,66.783l-33.391,0l0,166.957l33.391,0c27.619,0 50.087,-22.468 50.087,-50.087l0,-66.783c0,-27.62 -22.468,-50.087 -50.087,-50.087z"/>
 </g>
</svg>