<svg width="512" height="512" xmlns="http://www.w3.org/2000/svg" version="1.1" xml:space="preserve" fill="#000000" transform="matrix(-1, 0, 0, 1, 0, 0)" stroke="#000000" stroke-width="1.536">
 <g>
  <title>Layer 1</title>
  <g id="SVGRepo_bgCarrier" stroke-width="0"/>
  <g stroke-width="0" id="svg_13"/>
  <g stroke="null" id="svg_14">
   <path stroke="null" fill="#7C84E8" d="m461.09331,236.28125c-0.88814,-2.97496 -2.37193,-6.22214 -3.85039,-9.19711c-7.99062,-17.04284 -19.53116,-34.3579 -35.51773,-54.10592c-0.29516,-0.8118 -0.88814,-1.3538 -1.48112,-2.16317c-25.15784,-31.92252 -60.96807,-70.33697 -108.91448,-124.71268c-7.99062,-9.19711 -16.57689,-18.66643 -25.1605,-28.67534c-8.58095,-9.73911 -21.60527,-14.33767 -34.62427,-14.33767s-26.04598,4.59855 -34.62427,14.33767c-13.6173,15.69147 -26.3438,30.02914 -38.1795,43.55501c-41.73207,47.07198 -72.80908,81.42988 -95.89548,109.83543c-0.59298,1.08158 -1.77894,2.43539 -2.66709,3.51697c-12.42868,15.96126 -22.19825,30.02914 -29.89371,43.55501c-1.1833,2.16317 -2.36661,4.59855 -3.25209,6.76415c-12.73448,24.61879 -17.46769,47.88378 -17.46769,78.45249c0,111.9986 99.44539,202.89538 221.97716,202.89538s221.97716,-90.89678 221.97716,-202.89538c0.00266,-25.16566 -3.54991,-46.26505 -12.42602,-66.82486z"/>
   <path stroke="null" fill="#515BE0" d="m473.52199,303.10124c0,111.9986 -99.44539,202.89538 -221.97716,202.89538l0,-502.91211c13.019,0 26.04598,4.59855 34.62427,14.33767c8.58361,10.0089 17.16987,19.47823 25.1605,28.67534c47.94641,54.37571 83.7593,92.79016 108.91448,124.71268c0.59298,0.8118 1.1833,1.3538 1.48112,2.16317l3.55257,3.78676c13.32214,15.15189 23.97187,32.19231 31.96516,50.31916c1.48112,2.97496 2.96225,6.22214 3.85039,9.19711c8.87611,20.56467 12.42868,41.66406 12.42868,66.82486z"/>
  </g>
 </g>

</svg>